<svg width="315" height="105" viewBox="0 0 315 105" fill="none" xmlns="http://www.w3.org/2000/svg">
<ellipse cx="53" cy="49.275" rx="29" ry="28" fill="white"/>
<path fill-rule="evenodd" clip-rule="evenodd" d="M46.434 10.4596C39.843 17.4778 36.146 19.1925 27.5 19.2418C22.853 19.2681 22.394 19.5095 21 22.6606C19.827 25.3097 18.791 26.1214 16.25 26.3786C13.208 26.6873 13 26.9635 13 30.7036C13 37.3238 15.844 52.343 18.502 59.7571C23.65 74.1158 33.52 87.4624 45.791 96.6572L52.223 101.477L55.771 99.4702C61.117 96.4473 73.64 83.716 78.195 76.6726C86.177 64.3309 90.572 50.8279 91.681 35.2375L92.297 26.575H89.349C85.808 26.575 84 24.9065 84 21.64C84 19.4056 83.578 19.225 78.366 19.225C69.199 19.225 65.184 17.4326 58.5 10.3535L52.5 4L46.434 10.4596ZM49.93 31.3882C48.978 32.5936 48.905 33.5323 49.665 34.8007C51.157 37.2871 54.146 37.622 55.645 35.4695C58.421 31.4837 52.946 27.5735 49.93 31.3882ZM31 33.442C31 34.9088 31.9 37.9612 33 40.225C35.341 45.0434 35.486 48.3016 33.682 55.6012C32.429 60.6758 32.477 61.0706 34.682 63.7628C35.957 65.3189 37 67.274 37 68.1088C37 68.9425 37.675 69.625 38.5 69.625C39.333 69.625 40 68.6915 40 67.525C40 64.25 41.68 65.0596 42.367 68.6653C43.135 72.6973 45.586 72.1776 45.292 68.0447C45.083 65.1037 48.186 59.671 49.367 60.911C49.715 61.2764 50 64.2994 50 67.6279C50 73.6055 50.035 73.678 52.75 73.3787C55.363 73.091 55.529 72.7414 56.077 66.3626L56.655 59.65L56.827 66.2125C56.958 71.1716 57.355 72.775 58.455 72.775C62.32 72.775 61.638 55.6978 57.57 50.621C56.156 48.857 55.029 46.6237 55.063 45.6566C55.104 44.5258 55.481 44.8345 56.121 46.525C56.667 47.9687 58.192 50.3334 59.509 51.7792C61.522 53.9905 61.95 55.6568 62.201 62.2792L62.5 70.15L65.5 70.1017L68.5 70.0544L68.795 61.8077C69.019 55.5455 69.56 52.9342 71.045 50.9518C72.12 49.5164 72.974 46.8694 72.941 45.0708C72.888 42.1087 72.77 41.989 71.691 43.8076C69.773 47.0405 67.097 49.676 65.75 49.6592C64.824 49.6466 64.85 49.4104 65.848 48.7458C67.825 47.4301 66.833 43.9 64.486 43.9C63.188 43.9 62.389 44.7179 62.18 46.2625C61.997 47.6191 62.387 48.625 63.097 48.625C63.777 48.625 64.044 48.9284 63.691 49.3001C62.636 50.4079 60 47.4805 60 45.2009C60 44.0375 61.8 41.0345 64 38.5282C66.2 36.0218 68 33.5166 68 32.9601C68 30.6269 65.657 30.7225 63.169 33.1574C59.413 36.8325 57.345 37.7764 49.978 39.1792C46.42 39.8564 43.191 40.9505 42.802 41.611C41.734 43.4264 36.843 39.238 34.668 34.6443C32.537 30.145 31 29.641 31 33.442ZM39.046 34.3912C36.345 37.8089 40.815 41.9197 43.811 38.7739C45.084 37.4362 45.215 36.6161 44.376 35.2175C42.916 32.7836 40.601 32.4245 39.046 34.3912ZM46.289 46.6982C44.474 47.2159 43.241 48.1766 43.455 48.9074C43.663 49.6183 44.085 51.418 44.393 52.9079C44.709 54.4388 46.069 56.1493 47.523 56.8454C50.986 58.5023 51.219 58.4152 49.784 56.0012C48.81 54.3643 48.808 53.6566 49.775 52.6412C51.121 51.2279 51.44 46.903 50.25 46.2163C49.837 45.978 48.055 46.1953 46.289 46.6982Z" fill="#070707"/>
<path d="M116.544 35.536C116.203 35.7813 115.765 35.9573 115.232 36.064C114.709 36.1707 114.171 36.224 113.616 36.224C112.944 36.224 112.304 36.1227 111.696 35.92C111.099 35.7067 110.571 35.3707 110.112 34.912C109.653 34.4427 109.285 33.84 109.008 33.104C108.741 32.3573 108.608 31.456 108.608 30.4C108.608 29.3013 108.757 28.384 109.056 27.648C109.365 26.9013 109.76 26.304 110.24 25.856C110.731 25.3973 111.275 25.072 111.872 24.88C112.469 24.6773 113.067 24.576 113.664 24.576C114.304 24.576 114.843 24.6187 115.28 24.704C115.728 24.7893 116.096 24.8907 116.384 25.008L115.952 26.864C115.707 26.7467 115.413 26.6613 115.072 26.608C114.741 26.5547 114.336 26.528 113.856 26.528C112.971 26.528 112.256 26.8427 111.712 27.472C111.179 28.1013 110.912 29.0773 110.912 30.4C110.912 30.976 110.976 31.504 111.104 31.984C111.232 32.4533 111.424 32.8587 111.68 33.2C111.947 33.5307 112.272 33.792 112.656 33.984C113.051 34.1653 113.504 34.256 114.016 34.256C114.496 34.256 114.901 34.208 115.232 34.112C115.563 34.016 115.851 33.8933 116.096 33.744L116.544 35.536ZM123.671 35.312C123.351 35.568 122.914 35.7867 122.359 35.968C121.815 36.1387 121.234 36.224 120.615 36.224C119.325 36.224 118.381 35.8507 117.783 35.104C117.186 34.3467 116.887 33.312 116.887 32C116.887 30.592 117.223 29.536 117.895 28.832C118.567 28.128 119.511 27.776 120.727 27.776C121.133 27.776 121.527 27.8293 121.911 27.936C122.295 28.0427 122.637 28.2187 122.935 28.464C123.234 28.7093 123.474 29.04 123.655 29.456C123.837 29.872 123.927 30.3893 123.927 31.008C123.927 31.232 123.911 31.472 123.879 31.728C123.858 31.984 123.821 32.2507 123.767 32.528H118.967C118.999 33.2 119.17 33.7067 119.479 34.048C119.799 34.3893 120.311 34.56 121.015 34.56C121.453 34.56 121.842 34.496 122.183 34.368C122.535 34.2293 122.802 34.0907 122.983 33.952L123.671 35.312ZM120.695 29.44C120.151 29.44 119.746 29.6053 119.479 29.936C119.223 30.256 119.069 30.688 119.015 31.232H121.991C122.034 30.656 121.943 30.2133 121.719 29.904C121.506 29.5947 121.165 29.44 120.695 29.44ZM132.244 32.336L132.372 30.672H132.292L131.652 32.048L130.148 34.528H129.396L127.748 32.048L127.14 30.672H127.044L127.252 32.32V36H125.396V28H127.556L129.396 31.008L129.844 32.016H129.908L130.372 30.976L132.068 28H134.244V36H132.244V32.336ZM138.133 34.256C138.453 34.32 138.757 34.352 139.045 34.352C139.557 34.352 139.925 34.2667 140.149 34.096C140.383 33.9147 140.501 33.6373 140.501 33.264C140.501 32.5707 140.031 32.224 139.093 32.224C138.741 32.224 138.421 32.2613 138.133 32.336V34.256ZM138.133 30.848C138.389 30.8053 138.645 30.7787 138.901 30.768C139.167 30.7467 139.407 30.736 139.621 30.736C140.175 30.736 140.645 30.8 141.029 30.928C141.413 31.0453 141.722 31.216 141.957 31.44C142.202 31.664 142.378 31.9307 142.485 32.24C142.591 32.5387 142.645 32.864 142.645 33.216C142.645 34.1867 142.357 34.912 141.781 35.392C141.205 35.872 140.229 36.112 138.853 36.112C138.245 36.112 137.717 36.1013 137.269 36.08C136.831 36.0587 136.426 36.032 136.053 36V28H138.133V30.848ZM147.855 32.976L146.895 33.168L145.359 36H142.879L144.431 33.488L145.215 32.896C144.692 32.8107 144.26 32.5653 143.919 32.16C143.577 31.744 143.407 31.2267 143.407 30.608C143.407 29.6373 143.727 28.9227 144.367 28.464C145.017 28.0053 146.009 27.776 147.343 27.776C147.855 27.776 148.329 27.8027 148.767 27.856C149.215 27.9093 149.604 27.968 149.935 28.032V36H147.855V32.976ZM147.855 31.888V29.68C147.737 29.6267 147.609 29.5893 147.471 29.568C147.332 29.5467 147.199 29.536 147.071 29.536C146.591 29.536 146.217 29.6373 145.951 29.84C145.684 30.0427 145.551 30.3467 145.551 30.752C145.551 31.1573 145.695 31.456 145.983 31.648C146.281 31.84 146.713 31.9307 147.279 31.92L147.855 31.888ZM152.254 29.152C152.254 28.7787 152.371 28.4853 152.606 28.272C152.84 28.048 153.15 27.936 153.534 27.936C153.939 27.936 154.259 28.048 154.494 28.272C154.728 28.4853 154.846 28.7787 154.846 29.152C154.846 29.5253 154.728 29.824 154.494 30.048C154.259 30.272 153.939 30.384 153.534 30.384C153.15 30.384 152.84 30.272 152.606 30.048C152.371 29.824 152.254 29.5253 152.254 29.152ZM152.254 34.944C152.254 34.5707 152.371 34.2773 152.606 34.064C152.84 33.84 153.15 33.728 153.534 33.728C153.939 33.728 154.259 33.84 154.494 34.064C154.728 34.2773 154.846 34.5707 154.846 34.944C154.846 35.3173 154.728 35.616 154.494 35.84C154.259 36.064 153.939 36.176 153.534 36.176C153.15 36.176 152.84 36.064 152.606 35.84C152.371 35.616 152.254 35.3173 152.254 34.944ZM167.45 35.536C167.109 35.7813 166.672 35.9573 166.138 36.064C165.616 36.1707 165.077 36.224 164.522 36.224C163.85 36.224 163.21 36.1227 162.602 35.92C162.005 35.7067 161.477 35.3707 161.018 34.912C160.56 34.4427 160.192 33.84 159.914 33.104C159.648 32.3573 159.514 31.456 159.514 30.4C159.514 29.3013 159.664 28.384 159.962 27.648C160.272 26.9013 160.666 26.304 161.146 25.856C161.637 25.3973 162.181 25.072 162.778 24.88C163.376 24.6773 163.973 24.576 164.57 24.576C165.21 24.576 165.749 24.6187 166.186 24.704C166.634 24.7893 167.002 24.8907 167.29 25.008L166.858 26.864C166.613 26.7467 166.32 26.6613 165.978 26.608C165.648 26.5547 165.242 26.528 164.762 26.528C163.877 26.528 163.162 26.8427 162.618 27.472C162.085 28.1013 161.818 29.0773 161.818 30.4C161.818 30.976 161.882 31.504 162.01 31.984C162.138 32.4533 162.33 32.8587 162.586 33.2C162.853 33.5307 163.178 33.792 163.562 33.984C163.957 34.1653 164.41 34.256 164.922 34.256C165.402 34.256 165.808 34.208 166.138 34.112C166.469 34.016 166.757 33.8933 167.002 33.744L167.45 35.536ZM167.794 32C167.794 30.6453 168.124 29.6053 168.786 28.88C169.447 28.144 170.375 27.776 171.57 27.776C172.21 27.776 172.764 27.8773 173.234 28.08C173.703 28.2827 174.092 28.5707 174.402 28.944C174.711 29.3067 174.94 29.7493 175.09 30.272C175.25 30.7947 175.33 31.3707 175.33 32C175.33 33.3547 174.999 34.4 174.338 35.136C173.687 35.8613 172.764 36.224 171.57 36.224C170.93 36.224 170.375 36.1227 169.906 35.92C169.436 35.7173 169.042 35.4347 168.722 35.072C168.412 34.6987 168.178 34.2507 168.018 33.728C167.868 33.2053 167.794 32.6293 167.794 32ZM169.938 32C169.938 32.352 169.97 32.6773 170.034 32.976C170.098 33.2747 170.194 33.536 170.322 33.76C170.45 33.984 170.615 34.16 170.818 34.288C171.031 34.4053 171.282 34.464 171.57 34.464C172.114 34.464 172.519 34.2667 172.786 33.872C173.052 33.4773 173.186 32.8533 173.186 32C173.186 31.264 173.063 30.672 172.818 30.224C172.572 29.7653 172.156 29.536 171.57 29.536C171.058 29.536 170.658 29.728 170.37 30.112C170.082 30.496 169.938 31.1253 169.938 32ZM181.379 29.84H178.851V36H176.771V28H183.459V36H181.379V29.84ZM185.287 28H186.807L187.047 28.96H187.111C187.388 28.5547 187.714 28.256 188.087 28.064C188.471 27.872 188.935 27.776 189.479 27.776C190.482 27.776 191.234 28.096 191.735 28.736C192.236 29.3653 192.487 30.384 192.487 31.792C192.487 32.4747 192.407 33.0933 192.247 33.648C192.087 34.192 191.847 34.656 191.527 35.04C191.218 35.424 190.834 35.7173 190.375 35.92C189.927 36.1227 189.41 36.224 188.823 36.224C188.492 36.224 188.22 36.1973 188.007 36.144C187.794 36.1013 187.58 36.0267 187.367 35.92V39.2H185.287V28ZM188.855 29.536C188.45 29.536 188.13 29.6373 187.895 29.84C187.671 30.0427 187.495 30.3467 187.367 30.752V34.08C187.516 34.1973 187.676 34.2933 187.847 34.368C188.028 34.432 188.263 34.464 188.551 34.464C189.148 34.464 189.596 34.256 189.895 33.84C190.194 33.4133 190.343 32.7147 190.343 31.744C190.343 31.04 190.226 30.496 189.991 30.112C189.756 29.728 189.378 29.536 188.855 29.536ZM193.544 32C193.544 30.6453 193.874 29.6053 194.536 28.88C195.197 28.144 196.125 27.776 197.32 27.776C197.96 27.776 198.514 27.8773 198.984 28.08C199.453 28.2827 199.842 28.5707 200.152 28.944C200.461 29.3067 200.69 29.7493 200.84 30.272C201 30.7947 201.08 31.3707 201.08 32C201.08 33.3547 200.749 34.4 200.088 35.136C199.437 35.8613 198.514 36.224 197.32 36.224C196.68 36.224 196.125 36.1227 195.656 35.92C195.186 35.7173 194.792 35.4347 194.472 35.072C194.162 34.6987 193.928 34.2507 193.768 33.728C193.618 33.2053 193.544 32.6293 193.544 32ZM195.688 32C195.688 32.352 195.72 32.6773 195.784 32.976C195.848 33.2747 195.944 33.536 196.072 33.76C196.2 33.984 196.365 34.16 196.568 34.288C196.781 34.4053 197.032 34.464 197.32 34.464C197.864 34.464 198.269 34.2667 198.536 33.872C198.802 33.4773 198.936 32.8533 198.936 32C198.936 31.264 198.813 30.672 198.568 30.224C198.322 29.7653 197.906 29.536 197.32 29.536C196.808 29.536 196.408 29.728 196.12 30.112C195.832 30.496 195.688 31.1253 195.688 32ZM202.521 28.016C202.895 27.984 203.343 27.952 203.865 27.92C204.399 27.888 204.969 27.872 205.577 27.872C206.751 27.872 207.583 28.0427 208.073 28.384C208.575 28.7147 208.825 29.216 208.825 29.888C208.825 30.2613 208.719 30.624 208.505 30.976C208.292 31.328 207.956 31.584 207.497 31.744V31.808C208.073 31.936 208.489 32.1653 208.745 32.496C209.001 32.816 209.129 33.232 209.129 33.744C209.129 34.544 208.82 35.1413 208.201 35.536C207.593 35.9307 206.612 36.128 205.257 36.128C204.809 36.128 204.335 36.112 203.833 36.08C203.332 36.0587 202.895 36.0267 202.521 35.984V28.016ZM204.553 34.4C204.703 34.4213 204.841 34.4373 204.969 34.448C205.097 34.4587 205.257 34.464 205.449 34.464C206.025 34.464 206.436 34.384 206.681 34.224C206.927 34.064 207.049 33.8187 207.049 33.488C207.049 33.2107 206.943 32.9867 206.729 32.816C206.527 32.6347 206.159 32.544 205.625 32.544H204.553V34.4ZM205.657 31.264C205.999 31.264 206.276 31.184 206.489 31.024C206.713 30.8533 206.825 30.64 206.825 30.384C206.825 30.1067 206.729 29.8987 206.537 29.76C206.356 29.6107 206.02 29.536 205.529 29.536C205.284 29.536 205.087 29.5413 204.937 29.552C204.799 29.5627 204.671 29.5733 204.553 29.584V31.264H205.657ZM210.215 32C210.215 30.6453 210.546 29.6053 211.208 28.88C211.869 28.144 212.797 27.776 213.992 27.776C214.632 27.776 215.186 27.8773 215.656 28.08C216.125 28.2827 216.514 28.5707 216.824 28.944C217.133 29.3067 217.362 29.7493 217.512 30.272C217.672 30.7947 217.752 31.3707 217.752 32C217.752 33.3547 217.421 34.4 216.76 35.136C216.109 35.8613 215.186 36.224 213.992 36.224C213.352 36.224 212.797 36.1227 212.328 35.92C211.858 35.7173 211.464 35.4347 211.144 35.072C210.834 34.6987 210.6 34.2507 210.44 33.728C210.29 33.2053 210.215 32.6293 210.215 32ZM212.36 32C212.36 32.352 212.392 32.6773 212.456 32.976C212.52 33.2747 212.616 33.536 212.744 33.76C212.872 33.984 213.037 34.16 213.24 34.288C213.453 34.4053 213.704 34.464 213.992 34.464C214.536 34.464 214.941 34.2667 215.208 33.872C215.474 33.4773 215.608 32.8533 215.608 32C215.608 31.264 215.485 30.672 215.24 30.224C214.994 29.7653 214.578 29.536 213.992 29.536C213.48 29.536 213.08 29.728 212.792 30.112C212.504 30.496 212.36 31.1253 212.36 32ZM222.06 32.752L220.428 36H218.091L220.188 32.336L220.732 31.856L219.916 31.248L218.268 28H220.492L221.98 31.248H222.668V28H224.652V31.408L225.26 31.184L226.764 28H228.972L227.227 31.248L226.604 31.76L227.42 32.4L229.356 36H226.972L225.34 32.688H224.652V36H222.668V32.528L222.06 32.752ZM238.63 37.824H237.11L236.87 36H231.494L231.254 37.824H229.734V34.16H230.678C230.763 34.0427 230.87 33.8453 230.998 33.568C231.136 33.28 231.27 32.8907 231.398 32.4C231.536 31.9093 231.654 31.3013 231.75 30.576C231.846 29.8507 231.894 28.992 231.894 28H237.462V34.16H238.63V37.824ZM235.382 34.256V29.76H233.702C233.68 30.144 233.643 30.5547 233.59 30.992C233.536 31.4187 233.467 31.8347 233.382 32.24C233.307 32.6453 233.216 33.024 233.11 33.376C233.003 33.728 232.886 34.0213 232.758 34.256H235.382ZM246.171 35.312C245.851 35.568 245.414 35.7867 244.859 35.968C244.315 36.1387 243.734 36.224 243.115 36.224C241.825 36.224 240.881 35.8507 240.283 35.104C239.686 34.3467 239.387 33.312 239.387 32C239.387 30.592 239.723 29.536 240.395 28.832C241.067 28.128 242.011 27.776 243.227 27.776C243.633 27.776 244.027 27.8293 244.411 27.936C244.795 28.0427 245.137 28.2187 245.435 28.464C245.734 28.7093 245.974 29.04 246.155 29.456C246.337 29.872 246.427 30.3893 246.427 31.008C246.427 31.232 246.411 31.472 246.379 31.728C246.358 31.984 246.321 32.2507 246.267 32.528H241.467C241.499 33.2 241.67 33.7067 241.979 34.048C242.299 34.3893 242.811 34.56 243.515 34.56C243.953 34.56 244.342 34.496 244.683 34.368C245.035 34.2293 245.302 34.0907 245.483 33.952L246.171 35.312ZM243.195 29.44C242.651 29.44 242.246 29.6053 241.979 29.936C241.723 30.256 241.569 30.688 241.515 31.232H244.491C244.534 30.656 244.443 30.2133 244.219 29.904C244.006 29.5947 243.665 29.44 243.195 29.44ZM252.584 32.848H249.976V36H247.896V28H249.976V31.008H252.584V28H254.664V36H252.584V32.848ZM262.89 35.312C262.57 35.568 262.133 35.7867 261.578 35.968C261.034 36.1387 260.453 36.224 259.834 36.224C258.543 36.224 257.599 35.8507 257.002 35.104C256.405 34.3467 256.106 33.312 256.106 32C256.106 30.592 256.442 29.536 257.114 28.832C257.786 28.128 258.73 27.776 259.946 27.776C260.351 27.776 260.746 27.8293 261.13 27.936C261.514 28.0427 261.855 28.2187 262.154 28.464C262.453 28.7093 262.693 29.04 262.874 29.456C263.055 29.872 263.146 30.3893 263.146 31.008C263.146 31.232 263.13 31.472 263.098 31.728C263.077 31.984 263.039 32.2507 262.986 32.528H258.186C258.218 33.2 258.389 33.7067 258.698 34.048C259.018 34.3893 259.53 34.56 260.234 34.56C260.671 34.56 261.061 34.496 261.402 34.368C261.754 34.2293 262.021 34.0907 262.202 33.952L262.89 35.312ZM259.914 29.44C259.37 29.44 258.965 29.6053 258.698 29.936C258.442 30.256 258.287 30.688 258.234 31.232H261.21C261.253 30.656 261.162 30.2133 260.938 29.904C260.725 29.5947 260.383 29.44 259.914 29.44ZM269.303 32.848H266.695V36H264.615V28H266.695V31.008H269.303V28H271.383V36H269.303V32.848ZM278.025 32.352L278.105 31.216H278.057L277.369 32.384L274.521 36H273.209V28H275.289V31.808L275.193 32.896H275.257L275.913 31.76L278.793 28H280.105V36H278.025V32.352ZM288.328 35.312C288.008 35.568 287.57 35.7867 287.016 35.968C286.472 36.1387 285.89 36.224 285.272 36.224C283.981 36.224 283.037 35.8507 282.44 35.104C281.842 34.3467 281.544 33.312 281.544 32C281.544 30.592 281.88 29.536 282.552 28.832C283.224 28.128 284.168 27.776 285.384 27.776C285.789 27.776 286.184 27.8293 286.568 27.936C286.952 28.0427 287.293 28.2187 287.592 28.464C287.89 28.7093 288.13 29.04 288.312 29.456C288.493 29.872 288.584 30.3893 288.584 31.008C288.584 31.232 288.568 31.472 288.536 31.728C288.514 31.984 288.477 32.2507 288.424 32.528H283.624C283.656 33.2 283.826 33.7067 284.136 34.048C284.456 34.3893 284.968 34.56 285.672 34.56C286.109 34.56 286.498 34.496 286.84 34.368C287.192 34.2293 287.458 34.0907 287.64 33.952L288.328 35.312ZM285.352 29.44C284.808 29.44 284.402 29.6053 284.136 29.936C283.88 30.256 283.725 30.688 283.672 31.232H286.648C286.69 30.656 286.6 30.2133 286.376 29.904C286.162 29.5947 285.821 29.44 285.352 29.44Z" fill="white"/>
<path d="M113.852 58.284H110.24L109.26 61H108.112L111.822 51.046H112.354L116.078 61H114.86L113.852 58.284ZM110.618 57.276H113.502L112.41 54.294L112.06 52.81H112.046L111.696 54.322L110.618 57.276ZM123.287 53.44C123.287 53.6733 123.25 53.9113 123.175 54.154C123.101 54.3967 122.989 54.6253 122.839 54.84C122.69 55.0453 122.499 55.2273 122.265 55.386C122.032 55.5447 121.757 55.666 121.439 55.75V55.806C121.719 55.8527 121.985 55.932 122.237 56.044C122.499 56.156 122.727 56.31 122.923 56.506C123.119 56.702 123.278 56.94 123.399 57.22C123.521 57.5 123.581 57.8313 123.581 58.214C123.581 58.718 123.474 59.1567 123.259 59.53C123.054 59.894 122.779 60.1927 122.433 60.426C122.097 60.6593 121.71 60.832 121.271 60.944C120.833 61.056 120.385 61.112 119.927 61.112C119.769 61.112 119.582 61.112 119.367 61.112C119.153 61.112 118.929 61.1027 118.695 61.084C118.462 61.0747 118.229 61.056 117.995 61.028C117.762 61.0093 117.557 60.9767 117.379 60.93V51.284C117.725 51.228 118.126 51.1813 118.583 51.144C119.041 51.1067 119.54 51.088 120.081 51.088C120.445 51.088 120.814 51.1207 121.187 51.186C121.57 51.242 121.915 51.3587 122.223 51.536C122.531 51.704 122.783 51.942 122.979 52.25C123.185 52.558 123.287 52.9547 123.287 53.44ZM120.039 60.104C120.338 60.104 120.627 60.0713 120.907 60.006C121.187 59.9313 121.435 59.8193 121.649 59.67C121.864 59.5113 122.032 59.32 122.153 59.096C122.284 58.872 122.349 58.606 122.349 58.298C122.349 57.9153 122.27 57.6073 122.111 57.374C121.962 57.1407 121.761 56.9587 121.509 56.828C121.267 56.6973 120.991 56.6087 120.683 56.562C120.375 56.5153 120.067 56.492 119.759 56.492H118.541V60.006C118.607 60.0247 118.7 60.0387 118.821 60.048C118.943 60.0573 119.073 60.0667 119.213 60.076C119.353 60.0853 119.498 60.0947 119.647 60.104C119.797 60.104 119.927 60.104 120.039 60.104ZM119.269 55.512C119.428 55.512 119.619 55.5073 119.843 55.498C120.067 55.4887 120.254 55.4747 120.403 55.456C120.627 55.3813 120.837 55.2927 121.033 55.19C121.229 55.078 121.402 54.952 121.551 54.812C121.71 54.6627 121.831 54.4947 121.915 54.308C122.009 54.112 122.055 53.902 122.055 53.678C122.055 53.37 121.995 53.118 121.873 52.922C121.761 52.7167 121.607 52.5533 121.411 52.432C121.215 52.3107 120.991 52.2267 120.739 52.18C120.487 52.124 120.231 52.096 119.969 52.096C119.661 52.096 119.377 52.1053 119.115 52.124C118.863 52.1333 118.672 52.152 118.541 52.18V55.512H119.269ZM131.5 52.236H128.448V61H127.286V52.236H124.234V51.2H131.5V52.236ZM131.862 56.1C131.862 54.4667 132.207 53.216 132.898 52.348C133.589 51.4707 134.573 51.032 135.852 51.032C136.543 51.032 137.14 51.1533 137.644 51.396C138.148 51.6387 138.563 51.984 138.89 52.432C139.226 52.8707 139.473 53.4027 139.632 54.028C139.791 54.644 139.87 55.3347 139.87 56.1C139.87 57.7333 139.52 58.9887 138.82 59.866C138.129 60.734 137.14 61.168 135.852 61.168C135.171 61.168 134.578 61.0467 134.074 60.804C133.579 60.5613 133.164 60.2207 132.828 59.782C132.501 59.334 132.259 58.802 132.1 58.186C131.941 57.5607 131.862 56.8653 131.862 56.1ZM133.094 56.1C133.094 56.6413 133.145 57.1547 133.248 57.64C133.36 58.1253 133.528 58.5547 133.752 58.928C133.976 59.292 134.261 59.586 134.606 59.81C134.961 60.0247 135.376 60.132 135.852 60.132C136.72 60.132 137.401 59.8053 137.896 59.152C138.391 58.4893 138.638 57.472 138.638 56.1C138.638 55.568 138.582 55.0593 138.47 54.574C138.367 54.0793 138.199 53.65 137.966 53.286C137.742 52.9127 137.453 52.6187 137.098 52.404C136.753 52.18 136.337 52.068 135.852 52.068C134.993 52.068 134.317 52.3993 133.822 53.062C133.337 53.7153 133.094 54.728 133.094 56.1ZM149.37 54.42L149.51 52.95H149.44L148.908 54.294L146.36 58.718H146.01L143.308 54.28L142.804 52.95H142.734L142.93 54.406V61H141.838V51.2H142.706L145.772 56.212L146.234 57.304H146.262L146.696 56.184L149.622 51.2H150.532V61H149.37V54.42ZM157.575 58.284H153.963L152.983 61H151.835L155.545 51.046H156.077L159.801 61H158.583L157.575 58.284ZM154.341 57.276H157.225L156.133 54.294L155.783 52.81H155.769L155.419 54.322L154.341 57.276ZM166.487 52.236H163.435V61H162.273V52.236H159.221V51.2H166.487V52.236ZM173.916 54.364L174 53.244H173.944L173.342 54.392L168.61 61H167.924V51.2H169.086V57.92L168.988 59.026H169.044L169.66 57.878L174.392 51.2H175.078V61H173.916V54.364ZM178.21 56.366V55.386H178.434C178.518 55.386 178.62 55.386 178.742 55.386C178.863 55.386 178.984 55.3813 179.106 55.372C179.236 55.3627 179.358 55.358 179.47 55.358C179.591 55.3487 179.689 55.3347 179.764 55.316C180.006 55.2787 180.235 55.218 180.45 55.134C180.664 55.0407 180.851 54.924 181.01 54.784C181.168 54.644 181.294 54.4807 181.388 54.294C181.481 54.1073 181.528 53.902 181.528 53.678C181.528 53.37 181.476 53.1133 181.374 52.908C181.271 52.7027 181.126 52.5393 180.94 52.418C180.762 52.2873 180.552 52.1987 180.31 52.152C180.076 52.096 179.824 52.068 179.554 52.068C179.05 52.068 178.62 52.1053 178.266 52.18C177.911 52.2453 177.626 52.3293 177.412 52.432L177.104 51.508C177.29 51.4053 177.626 51.3027 178.112 51.2C178.597 51.088 179.143 51.032 179.75 51.032C180.123 51.032 180.487 51.074 180.842 51.158C181.206 51.2327 181.528 51.3633 181.808 51.55C182.097 51.7273 182.326 51.9747 182.494 52.292C182.671 52.6 182.76 52.9827 182.76 53.44C182.76 53.9067 182.606 54.3547 182.298 54.784C181.99 55.204 181.528 55.5073 180.912 55.694V55.75C181.574 55.8433 182.097 56.0907 182.48 56.492C182.862 56.8933 183.054 57.43 183.054 58.102C183.054 58.634 182.946 59.096 182.732 59.488C182.526 59.8707 182.251 60.188 181.906 60.44C181.57 60.692 181.178 60.8787 180.73 61C180.291 61.112 179.843 61.168 179.386 61.168C178.77 61.168 178.261 61.1307 177.86 61.056C177.468 60.9907 177.141 60.9067 176.88 60.804L177.174 59.754C177.388 59.8567 177.687 59.9453 178.07 60.02C178.462 60.0947 178.933 60.132 179.484 60.132C179.773 60.132 180.058 60.0947 180.338 60.02C180.618 59.936 180.865 59.8147 181.08 59.656C181.304 59.488 181.481 59.2827 181.612 59.04C181.752 58.7973 181.822 58.508 181.822 58.172C181.822 57.584 181.616 57.1547 181.206 56.884C180.795 56.604 180.258 56.4407 179.596 56.394C179.484 56.3847 179.376 56.38 179.274 56.38C179.18 56.3707 179.082 56.366 178.98 56.366H178.21ZM191.02 54.364L191.104 53.244H191.048L190.446 54.392L185.714 61H185.028V51.2H186.19V57.92L186.092 59.026H186.148L186.764 57.878L191.496 51.2H192.182V61H191.02V54.364ZM194.557 51.298C194.912 51.214 195.295 51.158 195.705 51.13C196.116 51.102 196.522 51.088 196.923 51.088C197.353 51.088 197.787 51.13 198.225 51.214C198.673 51.298 199.079 51.452 199.443 51.676C199.807 51.9 200.101 52.208 200.325 52.6C200.559 52.992 200.675 53.4913 200.675 54.098C200.675 54.6953 200.568 55.1993 200.353 55.61C200.139 56.0207 199.854 56.3567 199.499 56.618C199.145 56.87 198.739 57.052 198.281 57.164C197.824 57.276 197.353 57.332 196.867 57.332C196.821 57.332 196.741 57.332 196.629 57.332C196.527 57.332 196.415 57.332 196.293 57.332C196.181 57.3227 196.069 57.3133 195.957 57.304C195.845 57.2947 195.766 57.2853 195.719 57.276V61H194.557V51.298ZM196.951 52.096C196.709 52.096 196.475 52.1007 196.251 52.11C196.027 52.1193 195.85 52.1427 195.719 52.18V56.24C195.766 56.2587 195.841 56.2727 195.943 56.282C196.046 56.282 196.153 56.2867 196.265 56.296C196.377 56.296 196.485 56.296 196.587 56.296C196.69 56.296 196.765 56.296 196.811 56.296C197.129 56.296 197.441 56.268 197.749 56.212C198.067 56.1467 198.351 56.0347 198.603 55.876C198.855 55.7173 199.056 55.4933 199.205 55.204C199.364 54.9147 199.443 54.546 199.443 54.098C199.443 53.7153 199.369 53.398 199.219 53.146C199.079 52.8847 198.888 52.6793 198.645 52.53C198.412 52.3713 198.146 52.2593 197.847 52.194C197.549 52.1287 197.25 52.096 196.951 52.096ZM201.739 56.1C201.739 54.4667 202.084 53.216 202.775 52.348C203.466 51.4707 204.45 51.032 205.729 51.032C206.42 51.032 207.017 51.1533 207.521 51.396C208.025 51.6387 208.44 51.984 208.767 52.432C209.103 52.8707 209.35 53.4027 209.509 54.028C209.668 54.644 209.747 55.3347 209.747 56.1C209.747 57.7333 209.397 58.9887 208.697 59.866C208.006 60.734 207.017 61.168 205.729 61.168C205.048 61.168 204.455 61.0467 203.951 60.804C203.456 60.5613 203.041 60.2207 202.705 59.782C202.378 59.334 202.136 58.802 201.977 58.186C201.818 57.5607 201.739 56.8653 201.739 56.1ZM202.971 56.1C202.971 56.6413 203.022 57.1547 203.125 57.64C203.237 58.1253 203.405 58.5547 203.629 58.928C203.853 59.292 204.138 59.586 204.483 59.81C204.838 60.0247 205.253 60.132 205.729 60.132C206.597 60.132 207.278 59.8053 207.773 59.152C208.268 58.4893 208.515 57.472 208.515 56.1C208.515 55.568 208.459 55.0593 208.347 54.574C208.244 54.0793 208.076 53.65 207.843 53.286C207.619 52.9127 207.33 52.6187 206.975 52.404C206.63 52.18 206.214 52.068 205.729 52.068C204.87 52.068 204.194 52.3993 203.699 53.062C203.214 53.7153 202.971 54.728 202.971 56.1ZM217.623 53.44C217.623 53.6733 217.586 53.9113 217.511 54.154C217.437 54.3967 217.325 54.6253 217.175 54.84C217.026 55.0453 216.835 55.2273 216.601 55.386C216.368 55.5447 216.093 55.666 215.775 55.75V55.806C216.055 55.8527 216.321 55.932 216.573 56.044C216.835 56.156 217.063 56.31 217.259 56.506C217.455 56.702 217.614 56.94 217.735 57.22C217.857 57.5 217.917 57.8313 217.917 58.214C217.917 58.718 217.81 59.1567 217.595 59.53C217.39 59.894 217.115 60.1927 216.769 60.426C216.433 60.6593 216.046 60.832 215.607 60.944C215.169 61.056 214.721 61.112 214.263 61.112C214.105 61.112 213.918 61.112 213.703 61.112C213.489 61.112 213.265 61.1027 213.031 61.084C212.798 61.0747 212.565 61.056 212.331 61.028C212.098 61.0093 211.893 60.9767 211.715 60.93V51.284C212.061 51.228 212.462 51.1813 212.919 51.144C213.377 51.1067 213.876 51.088 214.417 51.088C214.781 51.088 215.15 51.1207 215.523 51.186C215.906 51.242 216.251 51.3587 216.559 51.536C216.867 51.704 217.119 51.942 217.315 52.25C217.521 52.558 217.623 52.9547 217.623 53.44ZM214.375 60.104C214.674 60.104 214.963 60.0713 215.243 60.006C215.523 59.9313 215.771 59.8193 215.985 59.67C216.2 59.5113 216.368 59.32 216.489 59.096C216.62 58.872 216.685 58.606 216.685 58.298C216.685 57.9153 216.606 57.6073 216.447 57.374C216.298 57.1407 216.097 56.9587 215.845 56.828C215.603 56.6973 215.327 56.6087 215.019 56.562C214.711 56.5153 214.403 56.492 214.095 56.492H212.877V60.006C212.943 60.0247 213.036 60.0387 213.157 60.048C213.279 60.0573 213.409 60.0667 213.549 60.076C213.689 60.0853 213.834 60.0947 213.983 60.104C214.133 60.104 214.263 60.104 214.375 60.104ZM213.605 55.512C213.764 55.512 213.955 55.5073 214.179 55.498C214.403 55.4887 214.59 55.4747 214.739 55.456C214.963 55.3813 215.173 55.2927 215.369 55.19C215.565 55.078 215.738 54.952 215.887 54.812C216.046 54.6627 216.167 54.4947 216.251 54.308C216.345 54.112 216.391 53.902 216.391 53.678C216.391 53.37 216.331 53.118 216.209 52.922C216.097 52.7167 215.943 52.5533 215.747 52.432C215.551 52.3107 215.327 52.2267 215.075 52.18C214.823 52.124 214.567 52.096 214.305 52.096C213.997 52.096 213.713 52.1053 213.451 52.124C213.199 52.1333 213.008 52.152 212.877 52.18V55.512H213.605ZM224.553 58.284H220.941L219.961 61H218.813L222.523 51.046H223.055L226.779 61H225.561L224.553 58.284ZM221.319 57.276H224.203L223.111 54.294L222.761 52.81H222.747L222.397 54.322L221.319 57.276ZM233.947 56.506H229.243V61H228.081V51.2H229.243V55.47H233.947V51.2H235.109V61H233.947V56.506ZM243.353 56.506H238.649V61H237.487V51.2H238.649V55.47H243.353V51.2H244.515V61H243.353V56.506ZM251.555 58.284H247.943L246.963 61H245.815L249.525 51.046H250.057L253.781 61H252.563L251.555 58.284ZM248.321 57.276H251.205L250.113 54.294L249.763 52.81H249.749L249.399 54.322L248.321 57.276ZM260.669 61H259.507V56.73L258.065 57.038L255.629 61H254.257L256.441 57.514L257.295 56.912C256.959 56.8373 256.646 56.7253 256.357 56.576C256.077 56.4173 255.829 56.2213 255.615 55.988C255.409 55.7453 255.246 55.4653 255.125 55.148C255.013 54.8307 254.957 54.4667 254.957 54.056C254.957 53.4867 255.05 53.0153 255.237 52.642C255.433 52.2593 255.694 51.956 256.021 51.732C256.357 51.4987 256.744 51.3353 257.183 51.242C257.631 51.1393 258.102 51.088 258.597 51.088C258.914 51.088 259.25 51.102 259.605 51.13C259.969 51.158 260.323 51.214 260.669 51.298V61ZM258.541 52.096C258.233 52.096 257.939 52.1287 257.659 52.194C257.379 52.25 257.127 52.3527 256.903 52.502C256.688 52.6513 256.515 52.852 256.385 53.104C256.254 53.356 256.189 53.6733 256.189 54.056C256.189 54.4107 256.249 54.714 256.371 54.966C256.501 55.218 256.674 55.428 256.889 55.596C257.103 55.7547 257.351 55.8713 257.631 55.946C257.92 56.0207 258.228 56.058 258.555 56.058H259.507V52.18C259.376 52.152 259.241 52.1333 259.101 52.124C258.961 52.1053 258.774 52.096 258.541 52.096ZM115.182 72.364L115.266 71.244H115.21L114.608 72.392L109.876 79H109.19V69.2H110.352V75.92L110.254 77.026H110.31L110.926 75.878L115.658 69.2H116.344V79H115.182V72.364ZM124.585 74.506H119.881V79H118.719V69.2H119.881V73.47H124.585V69.2H125.747V79H124.585V74.506ZM131.822 77.908C131.663 77.936 131.476 77.9547 131.262 77.964C131.056 77.9733 130.86 77.978 130.674 77.978C130.235 77.978 129.82 77.9033 129.428 77.754C129.045 77.6047 128.709 77.3713 128.42 77.054C128.14 76.7367 127.916 76.3353 127.748 75.85C127.589 75.3553 127.51 74.772 127.51 74.1C127.51 73.4653 127.589 72.9007 127.748 72.406C127.916 71.902 128.149 71.4773 128.448 71.132C128.756 70.7867 129.12 70.5253 129.54 70.348C129.96 70.1613 130.426 70.068 130.94 70.068C131.061 70.068 131.21 70.0727 131.388 70.082C131.574 70.0913 131.719 70.1053 131.822 70.124V68.92H132.97V70.166C133.138 70.1193 133.334 70.0913 133.558 70.082C133.791 70.0727 133.982 70.068 134.132 70.068C134.58 70.068 134.995 70.152 135.378 70.32C135.76 70.4787 136.092 70.7213 136.372 71.048C136.661 71.3653 136.885 71.7713 137.044 72.266C137.202 72.7513 137.282 73.316 137.282 73.96C137.282 74.6227 137.188 75.206 137.002 75.71C136.824 76.214 136.582 76.634 136.274 76.97C135.966 77.306 135.606 77.558 135.196 77.726C134.785 77.894 134.346 77.978 133.88 77.978C133.777 77.978 133.623 77.9733 133.418 77.964C133.222 77.9453 133.072 77.9173 132.97 77.88V79.28H131.822V77.908ZM133.964 71.048C133.833 71.048 133.665 71.0527 133.46 71.062C133.254 71.0713 133.086 71.0993 132.956 71.146V76.956C133.049 76.9747 133.17 76.9887 133.32 76.998C133.478 76.998 133.632 76.998 133.782 76.998C134.099 76.998 134.393 76.9373 134.664 76.816C134.944 76.6947 135.186 76.508 135.392 76.256C135.606 76.004 135.774 75.6867 135.896 75.304C136.017 74.9213 136.078 74.4733 136.078 73.96C136.078 73.5307 136.026 73.1387 135.924 72.784C135.83 72.42 135.69 72.1073 135.504 71.846C135.326 71.5847 135.107 71.3887 134.846 71.258C134.584 71.118 134.29 71.048 133.964 71.048ZM130.884 76.998C130.93 76.998 130.991 76.998 131.066 76.998C131.15 76.998 131.238 76.998 131.332 76.998C131.425 76.9887 131.514 76.9793 131.598 76.97C131.691 76.9513 131.77 76.9327 131.836 76.914V71.104C131.724 71.0853 131.584 71.0713 131.416 71.062C131.257 71.0527 131.112 71.048 130.982 71.048C130.664 71.048 130.366 71.1133 130.086 71.244C129.815 71.3653 129.577 71.5567 129.372 71.818C129.166 72.07 129.003 72.3873 128.882 72.77C128.77 73.1527 128.714 73.596 128.714 74.1C128.714 74.548 128.765 74.954 128.868 75.318C128.97 75.6727 129.115 75.976 129.302 76.228C129.498 76.48 129.726 76.6713 129.988 76.802C130.258 76.9327 130.557 76.998 130.884 76.998ZM138.643 74.1C138.643 72.4667 138.989 71.216 139.679 70.348C140.37 69.4707 141.355 69.032 142.633 69.032C143.324 69.032 143.921 69.1533 144.425 69.396C144.929 69.6387 145.345 69.984 145.671 70.432C146.007 70.8707 146.255 71.4027 146.413 72.028C146.572 72.644 146.651 73.3347 146.651 74.1C146.651 75.7333 146.301 76.9887 145.601 77.866C144.911 78.734 143.921 79.168 142.633 79.168C141.952 79.168 141.359 79.0467 140.855 78.804C140.361 78.5613 139.945 78.2207 139.609 77.782C139.283 77.334 139.04 76.802 138.881 76.186C138.723 75.5607 138.643 74.8653 138.643 74.1ZM139.875 74.1C139.875 74.6413 139.927 75.1547 140.029 75.64C140.141 76.1253 140.309 76.5547 140.533 76.928C140.757 77.292 141.042 77.586 141.387 77.81C141.742 78.0247 142.157 78.132 142.633 78.132C143.501 78.132 144.183 77.8053 144.677 77.152C145.172 76.4893 145.419 75.472 145.419 74.1C145.419 73.568 145.363 73.0593 145.251 72.574C145.149 72.0793 144.981 71.65 144.747 71.286C144.523 70.9127 144.234 70.6187 143.879 70.404C143.534 70.18 143.119 70.068 142.633 70.068C141.775 70.068 141.098 70.3993 140.603 71.062C140.118 71.7153 139.875 72.728 139.875 74.1ZM148.62 69.298C148.974 69.214 149.357 69.158 149.768 69.13C150.178 69.102 150.584 69.088 150.986 69.088C151.415 69.088 151.849 69.13 152.288 69.214C152.736 69.298 153.142 69.452 153.506 69.676C153.87 69.9 154.164 70.208 154.388 70.6C154.621 70.992 154.738 71.4913 154.738 72.098C154.738 72.6953 154.63 73.1993 154.416 73.61C154.201 74.0207 153.916 74.3567 153.562 74.618C153.207 74.87 152.801 75.052 152.344 75.164C151.886 75.276 151.415 75.332 150.93 75.332C150.883 75.332 150.804 75.332 150.692 75.332C150.589 75.332 150.477 75.332 150.356 75.332C150.244 75.3227 150.132 75.3133 150.02 75.304C149.908 75.2947 149.828 75.2853 149.782 75.276V79H148.62V69.298ZM151.014 70.096C150.771 70.096 150.538 70.1007 150.314 70.11C150.09 70.1193 149.912 70.1427 149.782 70.18V74.24C149.828 74.2587 149.903 74.2727 150.006 74.282C150.108 74.282 150.216 74.2867 150.328 74.296C150.44 74.296 150.547 74.296 150.65 74.296C150.752 74.296 150.827 74.296 150.874 74.296C151.191 74.296 151.504 74.268 151.812 74.212C152.129 74.1467 152.414 74.0347 152.666 73.876C152.918 73.7173 153.118 73.4933 153.268 73.204C153.426 72.9147 153.506 72.546 153.506 72.098C153.506 71.7153 153.431 71.398 153.282 71.146C153.142 70.8847 152.95 70.6793 152.708 70.53C152.474 70.3713 152.208 70.2593 151.91 70.194C151.611 70.1287 151.312 70.096 151.014 70.096ZM163.972 72.42L164.112 70.95H164.042L163.51 72.294L160.962 76.718H160.612L157.91 72.28L157.406 70.95H157.336L157.532 72.406V79H156.44V69.2H157.308L160.374 74.212L160.836 75.304H160.864L161.298 74.184L164.224 69.2H165.134V79H163.972V72.42ZM172.176 76.284H168.564L167.584 79H166.436L170.146 69.046H170.678L174.402 79H173.184L172.176 76.284ZM168.942 75.276H171.826L170.734 72.294L170.384 70.81H170.37L170.02 72.322L168.942 75.276ZM183.74 80.806H182.942L182.732 79H175.704V69.2H176.866V77.964H181.276V69.2H182.438V77.964H183.74V80.806ZM191.307 72.364L191.391 71.244H191.335L190.733 72.392L186.001 79H185.315V69.2H186.477V75.92L186.379 77.026H186.435L187.051 75.878L191.783 69.2H192.469V79H191.307V72.364ZM194.438 74.1C194.438 72.4667 194.784 71.216 195.474 70.348C196.165 69.4707 197.15 69.032 198.428 69.032C199.119 69.032 199.716 69.1533 200.22 69.396C200.724 69.6387 201.14 69.984 201.466 70.432C201.802 70.8707 202.05 71.4027 202.208 72.028C202.367 72.644 202.446 73.3347 202.446 74.1C202.446 75.7333 202.096 76.9887 201.396 77.866C200.706 78.734 199.716 79.168 198.428 79.168C197.747 79.168 197.154 79.0467 196.65 78.804C196.156 78.5613 195.74 78.2207 195.404 77.782C195.078 77.334 194.835 76.802 194.676 76.186C194.518 75.5607 194.438 74.8653 194.438 74.1ZM195.67 74.1C195.67 74.6413 195.722 75.1547 195.824 75.64C195.936 76.1253 196.104 76.5547 196.328 76.928C196.552 77.292 196.837 77.586 197.182 77.81C197.537 78.0247 197.952 78.132 198.428 78.132C199.296 78.132 199.978 77.8053 200.472 77.152C200.967 76.4893 201.214 75.472 201.214 74.1C201.214 73.568 201.158 73.0593 201.046 72.574C200.944 72.0793 200.776 71.65 200.542 71.286C200.318 70.9127 200.029 70.6187 199.674 70.404C199.329 70.18 198.914 70.068 198.428 70.068C197.57 70.068 196.893 70.3993 196.398 71.062C195.913 71.7153 195.67 72.728 195.67 74.1ZM210.281 74.506H205.577V79H204.415V69.2H205.577V73.47H210.281V69.2H211.443V79H210.281V74.506ZM219.687 74.506H214.983V79H213.821V69.2H214.983V73.47H219.687V69.2H220.849V79H219.687V74.506ZM227.889 76.284H224.277L223.297 79H222.149L225.859 69.046H226.391L230.115 79H228.897L227.889 76.284ZM224.655 75.276H227.539L226.447 72.294L226.097 70.81H226.083L225.733 72.322L224.655 75.276ZM237.003 79H235.841V74.73L234.399 75.038L231.963 79H230.591L232.775 75.514L233.629 74.912C233.293 74.8373 232.98 74.7253 232.691 74.576C232.411 74.4173 232.163 74.2213 231.949 73.988C231.743 73.7453 231.58 73.4653 231.459 73.148C231.347 72.8307 231.291 72.4667 231.291 72.056C231.291 71.4867 231.384 71.0153 231.571 70.642C231.767 70.2593 232.028 69.956 232.355 69.732C232.691 69.4987 233.078 69.3353 233.517 69.242C233.965 69.1393 234.436 69.088 234.931 69.088C235.248 69.088 235.584 69.102 235.939 69.13C236.303 69.158 236.657 69.214 237.003 69.298V79ZM234.875 70.096C234.567 70.096 234.273 70.1287 233.993 70.194C233.713 70.25 233.461 70.3527 233.237 70.502C233.022 70.6513 232.849 70.852 232.719 71.104C232.588 71.356 232.523 71.6733 232.523 72.056C232.523 72.4107 232.583 72.714 232.705 72.966C232.835 73.218 233.008 73.428 233.223 73.596C233.437 73.7547 233.685 73.8713 233.965 73.946C234.254 74.0207 234.562 74.058 234.889 74.058H235.841V70.18C235.71 70.152 235.575 70.1333 235.435 70.124C235.295 70.1053 235.108 70.096 234.875 70.096ZM249.392 78.594C249.112 78.8087 248.757 78.958 248.328 79.042C247.898 79.126 247.441 79.168 246.956 79.168C246.368 79.168 245.817 79.07 245.304 78.874C244.79 78.6687 244.342 78.3607 243.96 77.95C243.577 77.5393 243.274 77.0167 243.05 76.382C242.826 75.738 242.714 74.9773 242.714 74.1C242.714 73.1853 242.835 72.4107 243.078 71.776C243.33 71.132 243.656 70.6093 244.058 70.208C244.468 69.7973 244.926 69.4987 245.43 69.312C245.934 69.1253 246.447 69.032 246.97 69.032C247.53 69.032 247.987 69.0647 248.342 69.13C248.696 69.186 249 69.2653 249.252 69.368L248.972 70.39C248.524 70.1753 247.884 70.068 247.054 70.068C246.671 70.068 246.293 70.138 245.92 70.278C245.546 70.418 245.21 70.6467 244.912 70.964C244.622 71.2813 244.389 71.6967 244.212 72.21C244.034 72.7233 243.946 73.3533 243.946 74.1C243.946 74.772 244.03 75.36 244.198 75.864C244.366 76.368 244.594 76.788 244.884 77.124C245.182 77.46 245.528 77.712 245.92 77.88C246.321 78.048 246.755 78.132 247.222 78.132C247.642 78.132 248.006 78.09 248.314 78.006C248.631 77.922 248.897 77.8147 249.112 77.684L249.392 78.594ZM257.11 72.364L257.194 71.244H257.138L256.536 72.392L251.804 79H251.118V69.2H252.28V75.92L252.182 77.026H252.238L252.854 75.878L257.586 69.2H258.272V79H257.11V72.364ZM266.919 78.594C266.639 78.8087 266.284 78.958 265.855 79.042C265.426 79.126 264.968 79.168 264.483 79.168C263.895 79.168 263.344 79.07 262.831 78.874C262.318 78.6687 261.87 78.3607 261.487 77.95C261.104 77.5393 260.801 77.0167 260.577 76.382C260.353 75.738 260.241 74.9773 260.241 74.1C260.241 73.1853 260.362 72.4107 260.605 71.776C260.857 71.132 261.184 70.6093 261.585 70.208C261.996 69.7973 262.453 69.4987 262.957 69.312C263.461 69.1253 263.974 69.032 264.497 69.032C265.057 69.032 265.514 69.0647 265.869 69.13C266.224 69.186 266.527 69.2653 266.779 69.368L266.499 70.39C266.051 70.1753 265.412 70.068 264.581 70.068C264.198 70.068 263.82 70.138 263.447 70.278C263.074 70.418 262.738 70.6467 262.439 70.964C262.15 71.2813 261.916 71.6967 261.739 72.21C261.562 72.7233 261.473 73.3533 261.473 74.1C261.473 74.772 261.557 75.36 261.725 75.864C261.893 76.368 262.122 76.788 262.411 77.124C262.71 77.46 263.055 77.712 263.447 77.88C263.848 78.048 264.282 78.132 264.749 78.132C265.169 78.132 265.533 78.09 265.841 78.006C266.158 77.922 266.424 77.8147 266.639 77.684L266.919 78.594ZM274.809 70.236H271.757V79H270.595V70.236H267.543V69.2H274.809V70.236ZM276.247 69.2H281.581V70.236H277.409V73.442H281.231V74.478H277.409V77.964H281.651V79H276.247V69.2ZM291.285 72.42L291.425 70.95H291.355L290.823 72.294L288.275 76.718H287.925L285.223 72.28L284.719 70.95H284.649L284.845 72.406V79H283.753V69.2H284.62L287.687 74.212L288.149 75.304H288.177L288.611 74.184L291.537 69.2H292.447V79H291.285V72.42ZM299.489 76.284H295.877L294.897 79H293.749L297.459 69.046H297.991L301.715 79H300.497L299.489 76.284ZM296.255 75.276H299.139L298.047 72.294L297.697 70.81H297.683L297.333 72.322L296.255 75.276Z" fill="white"/>
</svg>
