<svg width="80" height="98" viewBox="0 0 80 98" fill="none" xmlns="http://www.w3.org/2000/svg">
<ellipse cx="40" cy="45.275" rx="29" ry="28" fill="white"/>
<path fill-rule="evenodd" clip-rule="evenodd" d="M33.434 6.4596C26.843 13.4778 23.146 15.1925 14.5 15.2418C9.853 15.2681 9.394 15.5095 8 18.6606C6.827 21.3097 5.791 22.1214 3.25 22.3786C0.208 22.6873 0 22.9635 0 26.7036C0 33.3238 2.844 48.343 5.502 55.7571C10.65 70.1158 20.52 83.4624 32.791 92.6572L39.223 97.4767L42.771 95.4702C48.117 92.4473 60.64 79.716 65.195 72.6726C73.177 60.3309 77.572 46.8279 78.681 31.2375L79.297 22.575H76.349C72.808 22.575 71 20.9065 71 17.64C71 15.4056 70.578 15.225 65.366 15.225C56.199 15.225 52.184 13.4326 45.5 6.35355L39.5 0L33.434 6.4596ZM36.93 27.3882C35.978 28.5936 35.905 29.5323 36.665 30.8007C38.157 33.2871 41.146 33.622 42.645 31.4695C45.421 27.4837 39.946 23.5735 36.93 27.3882ZM18 29.442C18 30.9088 18.9 33.9612 20 36.225C22.341 41.0434 22.486 44.3016 20.682 51.6012C19.429 56.6758 19.477 57.0706 21.682 59.7628C22.957 61.3189 24 63.274 24 64.1088C24 64.9425 24.675 65.625 25.5 65.625C26.333 65.625 27 64.6915 27 63.525C27 60.25 28.68 61.0596 29.367 64.6653C30.135 68.6973 32.586 68.1776 32.292 64.0447C32.083 61.1037 35.186 55.671 36.367 56.911C36.715 57.2764 37 60.2994 37 63.6279C37 69.6055 37.035 69.678 39.75 69.3787C42.363 69.091 42.529 68.7414 43.077 62.3626L43.655 55.65L43.827 62.2125C43.958 67.1716 44.355 68.775 45.455 68.775C49.32 68.775 48.638 51.6978 44.57 46.621C43.156 44.857 42.029 42.6237 42.063 41.6566C42.104 40.5258 42.481 40.8345 43.121 42.525C43.667 43.9687 45.192 46.3334 46.509 47.7792C48.522 49.9905 48.95 51.6568 49.201 58.2792L49.5 66.15L52.5 66.1017L55.5 66.0544L55.795 57.8077C56.019 51.5455 56.56 48.9342 58.045 46.9518C59.12 45.5164 59.974 42.8694 59.941 41.0708C59.888 38.1087 59.77 37.989 58.691 39.8076C56.773 43.0405 54.097 45.676 52.75 45.6592C51.824 45.6466 51.85 45.4104 52.848 44.7458C54.825 43.4301 53.833 39.9 51.486 39.9C50.188 39.9 49.389 40.7179 49.18 42.2625C48.997 43.6191 49.387 44.625 50.097 44.625C50.777 44.625 51.044 44.9284 50.691 45.3001C49.636 46.4079 47 43.4805 47 41.2009C47 40.0375 48.8 37.0345 51 34.5282C53.2 32.0218 55 29.5166 55 28.9601C55 26.6269 52.657 26.7225 50.169 29.1574C46.413 32.8325 44.345 33.7764 36.978 35.1792C33.42 35.8564 30.191 36.9505 29.802 37.611C28.734 39.4264 23.843 35.238 21.668 30.6443C19.537 26.145 18 25.641 18 29.442ZM26.046 30.3912C23.345 33.8089 27.815 37.9197 30.811 34.7739C32.084 33.4362 32.215 32.6161 31.376 31.2175C29.916 28.7836 27.601 28.4245 26.046 30.3912ZM33.289 42.6982C31.474 43.2159 30.241 44.1766 30.455 44.9074C30.663 45.6183 31.085 47.418 31.393 48.9079C31.709 50.4388 33.069 52.1493 34.523 52.8454C37.986 54.5023 38.219 54.4152 36.784 52.0012C35.81 50.3643 35.808 49.6566 36.775 48.6412C38.121 47.2279 38.44 42.903 37.25 42.2163C36.837 41.978 35.055 42.1953 33.289 42.6982Z" fill="#070707"/>
</svg>
